<svg xmlns="http://www.w3.org/2000/svg" width="240" height="240" viewBox="0 0 240 240"><defs><style>.a{opacity:0.89;}.b{fill:#e8ebfb;}</style></defs><g class="a" transform="translate(-318 -558)"><circle class="b" cx="7.5" cy="7.5" r="7.5" transform="translate(318 558)"/><circle class="b" cx="7.5" cy="7.5" r="7.5" transform="translate(343 558)"/><circle class="b" cx="7.5" cy="7.5" r="7.5" transform="translate(368 558)"/><circle class="b" cx="7.5" cy="7.5" r="7.5" transform="translate(393 558)"/><circle class="b" cx="7.5" cy="7.5" r="7.5" transform="translate(418 558)"/><circle class="b" cx="7.5" cy="7.5" r="7.5" transform="translate(443 558)"/><circle class="b" cx="7.5" cy="7.5" r="7.5" transform="translate(468 558)"/><circle class="b" cx="7.5" cy="7.5" r="7.5" transform="translate(493 558)"/><circle class="b" cx="7.5" cy="7.5" r="7.5" transform="translate(518 558)"/><circle class="b" cx="7.5" cy="7.5" r="7.5" transform="translate(543 558)"/><circle class="b" cx="7.5" cy="7.5" r="7.5" transform="translate(318 583)"/><circle class="b" cx="7.5" cy="7.5" r="7.5" transform="translate(343 583)"/><circle class="b" cx="7.5" cy="7.5" r="7.5" transform="translate(368 583)"/><circle class="b" cx="7.5" cy="7.5" r="7.5" transform="translate(393 583)"/><circle class="b" cx="7.5" cy="7.5" r="7.5" transform="translate(418 583)"/><circle class="b" cx="7.5" cy="7.5" r="7.5" transform="translate(443 583)"/><circle class="b" cx="7.5" cy="7.5" r="7.5" transform="translate(468 583)"/><circle class="b" cx="7.5" cy="7.5" r="7.5" transform="translate(493 583)"/><circle class="b" cx="7.5" cy="7.5" r="7.5" transform="translate(518 583)"/><circle class="b" cx="7.5" cy="7.5" r="7.5" transform="translate(543 583)"/><circle class="b" cx="7.5" cy="7.5" r="7.5" transform="translate(318 608)"/><circle class="b" cx="7.5" cy="7.5" r="7.5" transform="translate(343 608)"/><circle class="b" cx="7.5" cy="7.5" r="7.5" transform="translate(368 608)"/><circle class="b" cx="7.5" cy="7.5" r="7.5" transform="translate(393 608)"/><circle class="b" cx="7.5" cy="7.5" r="7.5" transform="translate(418 608)"/><circle class="b" cx="7.5" cy="7.5" r="7.5" transform="translate(443 608)"/><circle class="b" cx="7.5" cy="7.5" r="7.5" transform="translate(468 608)"/><circle class="b" cx="7.5" cy="7.5" r="7.5" transform="translate(493 608)"/><circle class="b" cx="7.5" cy="7.5" r="7.5" transform="translate(518 608)"/><circle class="b" cx="7.5" cy="7.5" r="7.5" transform="translate(543 608)"/><circle class="b" cx="7.5" cy="7.5" r="7.5" transform="translate(318 633)"/><circle class="b" cx="7.5" cy="7.5" r="7.5" transform="translate(343 633)"/><circle class="b" cx="7.5" cy="7.5" r="7.5" transform="translate(368 633)"/><circle class="b" cx="7.5" cy="7.5" r="7.5" transform="translate(393 633)"/><circle class="b" cx="7.5" cy="7.5" r="7.5" transform="translate(418 633)"/><circle class="b" cx="7.5" cy="7.5" r="7.5" transform="translate(443 633)"/><circle class="b" cx="7.5" cy="7.5" r="7.5" transform="translate(468 633)"/><circle class="b" cx="7.5" cy="7.5" r="7.5" transform="translate(493 633)"/><circle class="b" cx="7.5" cy="7.5" r="7.5" transform="translate(518 633)"/><circle class="b" cx="7.5" cy="7.5" r="7.5" transform="translate(543 633)"/><circle class="b" cx="7.5" cy="7.5" r="7.5" transform="translate(318 658)"/><circle class="b" cx="7.5" cy="7.5" r="7.5" transform="translate(343 658)"/><circle class="b" cx="7.5" cy="7.5" r="7.5" transform="translate(368 658)"/><circle class="b" cx="7.5" cy="7.5" r="7.5" transform="translate(393 658)"/><circle class="b" cx="7.5" cy="7.5" r="7.5" transform="translate(418 658)"/><circle class="b" cx="7.5" cy="7.5" r="7.5" transform="translate(443 658)"/><circle class="b" cx="7.5" cy="7.5" r="7.5" transform="translate(468 658)"/><circle class="b" cx="7.5" cy="7.5" r="7.5" transform="translate(493 658)"/><circle class="b" cx="7.5" cy="7.5" r="7.5" transform="translate(518 658)"/><circle class="b" cx="7.5" cy="7.5" r="7.5" transform="translate(543 658)"/><circle class="b" cx="7.5" cy="7.5" r="7.5" transform="translate(318 683)"/><circle class="b" cx="7.5" cy="7.5" r="7.5" transform="translate(343 683)"/><circle class="b" cx="7.5" cy="7.5" r="7.5" transform="translate(368 683)"/><circle class="b" cx="7.5" cy="7.5" r="7.5" transform="translate(393 683)"/><circle class="b" cx="7.5" cy="7.5" r="7.5" transform="translate(418 683)"/><circle class="b" cx="7.5" cy="7.5" r="7.5" transform="translate(443 683)"/><circle class="b" cx="7.5" cy="7.5" r="7.5" transform="translate(468 683)"/><circle class="b" cx="7.5" cy="7.5" r="7.5" transform="translate(493 683)"/><circle class="b" cx="7.5" cy="7.5" r="7.5" transform="translate(518 683)"/><circle class="b" cx="7.5" cy="7.5" r="7.5" transform="translate(543 683)"/><circle class="b" cx="7.5" cy="7.5" r="7.5" transform="translate(318 708)"/><circle class="b" cx="7.5" cy="7.5" r="7.5" transform="translate(343 708)"/><circle class="b" cx="7.5" cy="7.5" r="7.5" transform="translate(368 708)"/><circle class="b" cx="7.5" cy="7.5" r="7.5" transform="translate(393 708)"/><circle class="b" cx="7.5" cy="7.5" r="7.5" transform="translate(418 708)"/><circle class="b" cx="7.5" cy="7.5" r="7.5" transform="translate(443 708)"/><circle class="b" cx="7.5" cy="7.5" r="7.5" transform="translate(468 708)"/><circle class="b" cx="7.5" cy="7.5" r="7.5" transform="translate(493 708)"/><circle class="b" cx="7.5" cy="7.5" r="7.5" transform="translate(518 708)"/><circle class="b" cx="7.5" cy="7.5" r="7.5" transform="translate(543 708)"/><circle class="b" cx="7.5" cy="7.5" r="7.5" transform="translate(318 733)"/><circle class="b" cx="7.5" cy="7.5" r="7.5" transform="translate(343 733)"/><circle class="b" cx="7.5" cy="7.5" r="7.5" transform="translate(368 733)"/><circle class="b" cx="7.5" cy="7.5" r="7.5" transform="translate(393 733)"/><circle class="b" cx="7.5" cy="7.5" r="7.5" transform="translate(418 733)"/><circle class="b" cx="7.5" cy="7.5" r="7.5" transform="translate(443 733)"/><circle class="b" cx="7.5" cy="7.5" r="7.5" transform="translate(468 733)"/><circle class="b" cx="7.5" cy="7.5" r="7.5" transform="translate(493 733)"/><circle class="b" cx="7.5" cy="7.5" r="7.5" transform="translate(518 733)"/><circle class="b" cx="7.5" cy="7.5" r="7.5" transform="translate(543 733)"/><circle class="b" cx="7.5" cy="7.5" r="7.5" transform="translate(318 758)"/><circle class="b" cx="7.5" cy="7.5" r="7.5" transform="translate(343 758)"/><circle class="b" cx="7.5" cy="7.5" r="7.5" transform="translate(368 758)"/><circle class="b" cx="7.5" cy="7.5" r="7.5" transform="translate(393 758)"/><circle class="b" cx="7.5" cy="7.5" r="7.5" transform="translate(418 758)"/><circle class="b" cx="7.5" cy="7.5" r="7.5" transform="translate(443 758)"/><circle class="b" cx="7.5" cy="7.5" r="7.5" transform="translate(468 758)"/><circle class="b" cx="7.5" cy="7.5" r="7.5" transform="translate(493 758)"/><circle class="b" cx="7.5" cy="7.5" r="7.5" transform="translate(518 758)"/><circle class="b" cx="7.5" cy="7.5" r="7.5" transform="translate(543 758)"/><circle class="b" cx="7.5" cy="7.5" r="7.5" transform="translate(318 783)"/><circle class="b" cx="7.5" cy="7.5" r="7.5" transform="translate(343 783)"/><circle class="b" cx="7.5" cy="7.5" r="7.5" transform="translate(368 783)"/><circle class="b" cx="7.5" cy="7.5" r="7.5" transform="translate(393 783)"/><circle class="b" cx="7.5" cy="7.5" r="7.5" transform="translate(418 783)"/><circle class="b" cx="7.5" cy="7.5" r="7.5" transform="translate(443 783)"/><circle class="b" cx="7.5" cy="7.5" r="7.5" transform="translate(468 783)"/><circle class="b" cx="7.5" cy="7.5" r="7.5" transform="translate(493 783)"/><circle class="b" cx="7.5" cy="7.5" r="7.5" transform="translate(518 783)"/><circle class="b" cx="7.5" cy="7.5" r="7.5" transform="translate(543 783)"/></g></svg>